<svg width="89" height="89" viewBox="0 0 89 89" fill="none" xmlns="http://www.w3.org/2000/svg">
<g clip-path="url(#clip0_0_383)">
<g filter="url(#filter0_d_0_383)">
<circle cx="44.5" cy="44.5" r="44.5" fill="url(#paint0_linear_0_383)"/>
</g>
<g filter="url(#filter1_d_0_383)">
<ellipse cx="44.4477" cy="66.6489" rx="5.73106" ry="5.73106" transform="rotate(-45 44.4477 66.6489)" fill="url(#paint1_linear_0_383)"/>
<ellipse cx="44.4477" cy="66.6489" rx="5.73106" ry="5.73106" transform="rotate(-45 44.4477 66.6489)" stroke="#003B4E" stroke-width="1.53293"/>
</g>
<g filter="url(#filter2_d_0_383)">
<ellipse cx="43.9672" cy="21.1089" rx="5.73106" ry="5.73106" transform="rotate(-45 43.9672 21.1089)" fill="url(#paint2_linear_0_383)"/>
<ellipse cx="43.9672" cy="21.1089" rx="5.73106" ry="5.73106" transform="rotate(-45 43.9672 21.1089)" stroke="#003B4E" stroke-width="1.53293"/>
</g>
<path d="M10.3357 59.0072V29.4983H25.4273C29.3056 29.4983 32.2003 30.215 34.1114 31.6483C36.0224 33.0535 36.9779 34.9083 36.9779 37.2128C36.9779 38.7304 36.5704 40.0653 35.7554 41.2176C34.9685 42.3417 33.8444 43.241 32.383 43.9155C30.9497 44.5619 29.2354 44.8851 27.24 44.8851L28.0831 42.8616C30.1628 42.8616 31.9755 43.1848 33.5212 43.8312C35.0669 44.4495 36.2613 45.3629 37.1044 46.5713C37.9756 47.7517 38.4112 49.199 38.4112 50.9133C38.4112 53.4708 37.3714 55.4661 35.2917 56.8994C33.2402 58.3046 30.2331 59.0072 26.2704 59.0072H10.3357ZM18.5981 52.979H25.5959C27.0292 52.979 28.1112 52.7401 28.8419 52.2623C29.6007 51.7565 29.9801 50.9977 29.9801 49.9859C29.9801 48.9742 29.6007 48.2294 28.8419 47.7517C28.1112 47.2458 27.0292 46.9929 25.5959 46.9929H18.008V41.2176H24.3313C25.7365 41.2176 26.7904 40.9787 27.4929 40.5009C28.1955 40.0232 28.5468 39.3065 28.5468 38.351C28.5468 37.3955 28.1955 36.6929 27.4929 36.2432C26.7904 35.7655 25.7365 35.5266 24.3313 35.5266H18.5981V52.979Z" fill="#5AEF71"/>
<path d="M39.9265 59.0072V29.4983H48.2733V59.0072H39.9265Z" fill="#5AEF71"/>
<path d="M66.4748 59.5973C64.1422 59.5973 61.9783 59.2319 59.9829 58.5012C57.9875 57.7424 56.2592 56.6745 54.7978 55.2974C53.3645 53.9203 52.2403 52.3044 51.4253 50.4495C50.6103 48.5666 50.2028 46.5009 50.2028 44.2526C50.2028 42.0044 50.6103 39.9528 51.4253 38.0979C52.2403 36.215 53.3785 34.585 54.8399 33.2079C56.3013 31.8308 58.0297 30.7769 60.0251 30.0462C62.0485 29.2874 64.2547 28.908 66.6435 28.908C69.4257 28.908 71.9129 29.3717 74.105 30.2992C76.2971 31.2266 78.1098 32.5615 79.5431 34.3039L74.2315 39.1097C73.2197 38.0136 72.1237 37.1986 70.9433 36.6647C69.7911 36.1026 68.4983 35.8215 67.065 35.8215C65.8004 35.8215 64.6481 36.0183 63.6083 36.4117C62.5684 36.8052 61.6832 37.3813 60.9525 38.1401C60.2218 38.8708 59.6457 39.7561 59.2241 40.7959C58.8306 41.8076 58.6339 42.9599 58.6339 44.2526C58.6339 45.4892 58.8306 46.6274 59.2241 47.6672C59.6457 48.7071 60.2218 49.6064 60.9525 50.3652C61.6832 51.0959 62.5544 51.672 63.5661 52.0936C64.606 52.487 65.7442 52.6838 66.9807 52.6838C68.2173 52.6838 69.4257 52.487 70.6061 52.0936C71.7864 51.672 72.9809 50.9694 74.1893 49.9858L78.8686 55.8454C77.1824 57.0539 75.2291 57.9813 73.009 58.6277C70.7888 59.2741 68.6107 59.5973 66.4748 59.5973ZM71.4914 54.7494V43.6203H78.8686V55.8454L71.4914 54.7494Z" fill="#5AEF71"/>
</g>
<rect x="0.5" y="0.5" width="88" height="88" stroke="black"/>
<defs>
<filter id="filter0_d_0_383" x="-17.6576" y="-4.84696" width="124.315" height="124.315" filterUnits="userSpaceOnUse" color-interpolation-filters="sRGB">
<feFlood flood-opacity="0" result="BackgroundImageFix"/>
<feColorMatrix in="SourceAlpha" type="matrix" values="0 0 0 0 0 0 0 0 0 0 0 0 0 0 0 0 0 0 127 0" result="hardAlpha"/>
<feMorphology radius="8.09091" operator="erode" in="SourceAlpha" result="effect1_dropShadow_0_383"/>
<feOffset dy="12.8106"/>
<feGaussianBlur stdDeviation="12.8742"/>
<feComposite in2="hardAlpha" operator="out"/>
<feColorMatrix type="matrix" values="0 0 0 0 1 0 0 0 0 1 0 0 0 0 1 0 0 0 0.25 0"/>
<feBlend mode="normal" in2="BackgroundImageFix" result="effect1_dropShadow_0_383"/>
<feBlend mode="normal" in="SourceGraphic" in2="effect1_dropShadow_0_383" result="shape"/>
</filter>
<filter id="filter1_d_0_383" x="37.3674" y="57.7692" width="17.759" height="17.7593" filterUnits="userSpaceOnUse" color-interpolation-filters="sRGB">
<feFlood flood-opacity="0" result="BackgroundImageFix"/>
<feColorMatrix in="SourceAlpha" type="matrix" values="0 0 0 0 0 0 0 0 0 0 0 0 0 0 0 0 0 0 127 0" result="hardAlpha"/>
<feOffset dx="1.79918"/>
<feGaussianBlur stdDeviation="1.57428"/>
<feComposite in2="hardAlpha" operator="out"/>
<feColorMatrix type="matrix" values="0 0 0 0 0 0 0 0 0 0 0 0 0 0 0 0 0 0 0.25 0"/>
<feBlend mode="normal" in2="BackgroundImageFix" result="effect1_dropShadow_0_383"/>
<feBlend mode="normal" in="SourceGraphic" in2="effect1_dropShadow_0_383" result="shape"/>
</filter>
<filter id="filter2_d_0_383" x="36.8869" y="12.2292" width="17.759" height="17.7593" filterUnits="userSpaceOnUse" color-interpolation-filters="sRGB">
<feFlood flood-opacity="0" result="BackgroundImageFix"/>
<feColorMatrix in="SourceAlpha" type="matrix" values="0 0 0 0 0 0 0 0 0 0 0 0 0 0 0 0 0 0 127 0" result="hardAlpha"/>
<feOffset dx="1.79918"/>
<feGaussianBlur stdDeviation="1.57428"/>
<feComposite in2="hardAlpha" operator="out"/>
<feColorMatrix type="matrix" values="0 0 0 0 0 0 0 0 0 0 0 0 0 0 0 0 0 0 0.25 0"/>
<feBlend mode="normal" in2="BackgroundImageFix" result="effect1_dropShadow_0_383"/>
<feBlend mode="normal" in="SourceGraphic" in2="effect1_dropShadow_0_383" result="shape"/>
</filter>
<linearGradient id="paint0_linear_0_383" x1="4.87692" y1="17.2568" x2="99.0391" y2="74.2793" gradientUnits="userSpaceOnUse">
<stop stop-color="#00B1BA"/>
<stop offset="0.480726" stop-color="#007889"/>
<stop offset="1" stop-color="#3355BE"/>
</linearGradient>
<linearGradient id="paint1_linear_0_383" x1="39.8083" y1="62.2141" x2="49.9059" y2="73.3351" gradientUnits="userSpaceOnUse">
<stop offset="0.162563" stop-color="white"/>
<stop offset="1" stop-color="#D3D3D3"/>
</linearGradient>
<linearGradient id="paint2_linear_0_383" x1="39.3278" y1="16.6741" x2="49.4254" y2="27.7951" gradientUnits="userSpaceOnUse">
<stop offset="0.162563" stop-color="white"/>
<stop offset="1" stop-color="#D3D3D3"/>
</linearGradient>
<clipPath id="clip0_0_383">
<rect width="89" height="89" fill="white"/>
</clipPath>
</defs>
</svg>
