<svg width="391" height="289" viewBox="0 0 391 289" fill="none" xmlns="http://www.w3.org/2000/svg">
<g filter="url(#filter0_d_0_339)">
<g clip-path="url(#clip0_0_339)">
<rect x="108" y="73.931" width="172.092" height="172.092" rx="19.2952" fill="#F5F5F5"/>
<rect x="108" y="73.931" width="172.353" height="172.353" rx="19.1878" fill="url(#paint0_linear_0_339)"/>
<path d="M156.163 192.19V129.061H173.659L198.911 170.275H189.712L214.243 129.061H231.738L231.919 192.19H212.529L212.349 158.281H215.415L198.641 186.508H189.261L171.765 158.281H175.553V192.19H156.163Z" fill="url(#paint1_linear_0_339)"/>
<path d="M194.345 187.038V163.306L214.206 129.643H231.92L232.047 192.761H212.523L212.354 164.147L198.721 187.038H194.345Z" fill="url(#paint2_linear_0_339)"/>
</g>
</g>
<path d="M62.2083 37V9.88104H69.7241L80.5717 27.5858H76.62L87.1577 9.88104H94.6735L94.751 37H86.4216L86.3441 22.4332H87.6613L80.4554 34.5593H76.4263L68.9105 22.4332H70.5377V37H62.2083ZM103.549 44.9032C102.387 44.9032 101.199 44.7224 99.985 44.3609C98.797 44.0251 97.8413 43.5731 97.1182 43.0049L100.024 37C100.463 37.3358 100.954 37.6069 101.496 37.8136C102.064 38.0202 102.607 38.1235 103.123 38.1235C103.898 38.1235 104.492 37.9556 104.905 37.6199C105.318 37.3099 105.654 36.8321 105.912 36.1864L106.804 33.9394L107.423 33.0871L114.203 15.8085H122.494L113.777 37.4262C113.002 39.3632 112.098 40.8741 111.065 41.9589C110.058 43.0437 108.921 43.8056 107.656 44.2446C106.416 44.6837 105.047 44.9032 103.549 44.9032ZM105.603 37.9685L96.3821 15.8085H105.37L111.724 32.3123L105.603 37.9685Z" fill="#2585E2"/>
<path d="M124.104 37V9.88104H131.619L142.467 27.5858H138.515L149.053 9.88104H156.569L156.646 37H148.317L148.24 22.4332H149.557L142.351 34.5593H138.322L130.806 22.4332H132.433V37H124.104ZM171.992 37.3874C169.59 37.3874 167.459 36.9225 165.6 35.9927C163.766 35.0371 162.319 33.7328 161.261 32.0798C160.202 30.4269 159.672 28.5286 159.672 26.3849C159.672 24.2412 160.202 22.3428 161.261 20.6899C162.319 19.0369 163.766 17.7455 165.6 16.8157C167.459 15.886 169.59 15.4211 171.992 15.4211C174.394 15.4211 176.525 15.886 178.384 16.8157C180.244 17.7455 181.69 19.0369 182.723 20.6899C183.782 22.3428 184.312 24.2412 184.312 26.3849C184.312 28.5286 183.782 30.4269 182.723 32.0798C181.69 33.7328 180.244 35.0371 178.384 35.9927C176.525 36.9225 174.394 37.3874 171.992 37.3874ZM171.992 30.5689C172.638 30.5689 173.219 30.414 173.735 30.104C174.252 29.7941 174.665 29.3292 174.975 28.7093C175.285 28.0637 175.44 27.2888 175.44 26.3849C175.44 25.4551 175.285 24.6932 174.975 24.0991C174.665 23.4793 174.252 23.0144 173.735 22.7044C173.219 22.3945 172.638 22.2395 171.992 22.2395C171.346 22.2395 170.765 22.3945 170.249 22.7044C169.732 23.0144 169.319 23.4793 169.009 24.0991C168.699 24.6932 168.544 25.4551 168.544 26.3849C168.544 27.2888 168.699 28.0637 169.009 28.7093C169.319 29.3292 169.732 29.7941 170.249 30.104C170.765 30.414 171.346 30.5689 171.992 30.5689ZM192.489 37L183.966 15.8085H192.954L199.424 33.0096H194.891L201.787 15.8085H210.078L201.555 37H192.489ZM222.549 37.3874C219.966 37.3874 217.706 36.9096 215.769 35.954C213.858 34.9984 212.373 33.6941 211.314 32.0411C210.255 30.3623 209.726 28.4769 209.726 26.3849C209.726 24.2412 210.242 22.3428 211.275 20.6899C212.334 19.0369 213.768 17.7455 215.576 16.8157C217.409 15.886 219.463 15.4211 221.736 15.4211C223.828 15.4211 225.752 15.8343 227.508 16.6608C229.29 17.4873 230.711 18.7141 231.77 20.3412C232.854 21.9683 233.397 23.9829 233.397 26.3849C233.397 26.6948 233.384 27.0435 233.358 27.4309C233.332 27.7925 233.306 28.1282 233.28 28.4382H216.97V24.2153H228.631L225.338 25.3388C225.338 24.5124 225.184 23.815 224.874 23.2468C224.589 22.6528 224.189 22.2008 223.673 21.8909C223.156 21.5551 222.536 21.3872 221.813 21.3872C221.09 21.3872 220.457 21.5551 219.915 21.8909C219.398 22.2008 218.998 22.6528 218.714 23.2468C218.43 23.815 218.288 24.5124 218.288 25.3388V26.6561C218.288 27.56 218.468 28.3348 218.83 28.9805C219.192 29.6262 219.708 30.1169 220.38 30.4527C221.051 30.7626 221.865 30.9176 222.82 30.9176C223.802 30.9176 224.602 30.7885 225.222 30.5302C225.868 30.2719 226.539 29.8845 227.237 29.3679L231.808 33.9782C230.775 35.0888 229.497 35.9411 227.973 36.5351C226.475 37.1033 224.667 37.3874 222.549 37.3874Z" fill="#32C448"/>
<path d="M245.489 37L257.576 9.88104H263.775L275.901 37H269.315L259.397 13.0578H261.876L251.92 37H245.489ZM251.532 31.1888L253.198 26.4236H267.145L268.85 31.1888H251.532ZM290.608 37.3099C288.852 37.3099 287.315 36.9225 285.998 36.1477C284.681 35.3729 283.647 34.1977 282.898 32.6222C282.175 31.0209 281.814 29.0064 281.814 26.5786C281.814 24.125 282.162 22.1104 282.86 20.5349C283.557 18.9594 284.564 17.7843 285.882 17.0095C287.199 16.2346 288.774 15.8472 290.608 15.8472C292.571 15.8472 294.327 16.2992 295.877 17.2032C297.452 18.0813 298.692 19.321 299.596 20.9223C300.526 22.5236 300.991 24.4091 300.991 26.5786C300.991 28.7739 300.526 30.6722 299.596 32.2736C298.692 33.8749 297.452 35.1146 295.877 35.9927C294.327 36.8709 292.571 37.3099 290.608 37.3099ZM278.288 44.5158V16.1571H284.061V20.4187L283.944 26.6173L284.332 32.7772V44.5158H278.288ZM289.562 32.351C290.569 32.351 291.46 32.1186 292.235 31.6537C293.036 31.1888 293.669 30.5302 294.133 29.6779C294.624 28.7997 294.87 27.7666 294.87 26.5786C294.87 25.3647 294.624 24.3316 294.133 23.4793C293.669 22.627 293.036 21.9683 292.235 21.5035C291.46 21.0386 290.569 20.8061 289.562 20.8061C288.555 20.8061 287.651 21.0386 286.85 21.5035C286.049 21.9683 285.417 22.627 284.952 23.4793C284.487 24.3316 284.254 25.3647 284.254 26.5786C284.254 27.7666 284.487 28.7997 284.952 29.6779C285.417 30.5302 286.049 31.1888 286.85 31.6537C287.651 32.1186 288.555 32.351 289.562 32.351ZM317.356 37.3099C315.6 37.3099 314.063 36.9225 312.746 36.1477C311.429 35.3729 310.396 34.1977 309.647 32.6222C308.924 31.0209 308.562 29.0064 308.562 26.5786C308.562 24.125 308.911 22.1104 309.608 20.5349C310.305 18.9594 311.313 17.7843 312.63 17.0095C313.947 16.2346 315.522 15.8472 317.356 15.8472C319.319 15.8472 321.075 16.2992 322.625 17.2032C324.201 18.0813 325.44 19.321 326.344 20.9223C327.274 22.5236 327.739 24.4091 327.739 26.5786C327.739 28.7739 327.274 30.6722 326.344 32.2736C325.44 33.8749 324.201 35.1146 322.625 35.9927C321.075 36.8709 319.319 37.3099 317.356 37.3099ZM305.036 44.5158V16.1571H310.809V20.4187L310.693 26.6173L311.08 32.7772V44.5158H305.036ZM316.31 32.351C317.317 32.351 318.209 32.1186 318.983 31.6537C319.784 31.1888 320.417 30.5302 320.882 29.6779C321.372 28.7997 321.618 27.7666 321.618 26.5786C321.618 25.3647 321.372 24.3316 320.882 23.4793C320.417 22.627 319.784 21.9683 318.983 21.5035C318.209 21.0386 317.317 20.8061 316.31 20.8061C315.303 20.8061 314.399 21.0386 313.598 21.5035C312.798 21.9683 312.165 22.627 311.7 23.4793C311.235 24.3316 311.003 25.3647 311.003 26.5786C311.003 27.7666 311.235 28.7997 311.7 29.6779C312.165 30.5302 312.798 31.1888 313.598 31.6537C314.399 32.1186 315.303 32.351 316.31 32.351Z" fill="#282828"/>
<path d="M13.704 284V281.912L13.65 281.57V278.078C13.65 277.274 13.422 276.656 12.966 276.224C12.522 275.792 11.856 275.576 10.968 275.576C10.356 275.576 9.774 275.678 9.222 275.882C8.67 276.086 8.202 276.356 7.818 276.692L7.242 275.738C7.722 275.33 8.298 275.018 8.97 274.802C9.642 274.574 10.35 274.46 11.094 274.46C12.318 274.46 13.26 274.766 13.92 275.378C14.592 275.978 14.928 276.896 14.928 278.132V284H13.704ZM10.446 284.09C9.738 284.09 9.12 283.976 8.592 283.748C8.076 283.508 7.68 283.184 7.404 282.776C7.128 282.356 6.99 281.876 6.99 281.336C6.99 280.844 7.104 280.4 7.332 280.004C7.572 279.596 7.956 279.272 8.484 279.032C9.024 278.78 9.744 278.654 10.644 278.654H13.902V279.608H10.68C9.768 279.608 9.132 279.77 8.772 280.094C8.424 280.418 8.25 280.82 8.25 281.3C8.25 281.84 8.46 282.272 8.88 282.596C9.3 282.92 9.888 283.082 10.644 283.082C11.364 283.082 11.982 282.92 12.498 282.596C13.026 282.26 13.41 281.78 13.65 281.156L13.938 282.038C13.698 282.662 13.278 283.16 12.678 283.532C12.09 283.904 11.346 284.09 10.446 284.09ZM23.2232 274.46C23.9912 274.46 24.6632 274.61 25.2392 274.91C25.8272 275.198 26.2832 275.642 26.6072 276.242C26.9432 276.842 27.1112 277.598 27.1112 278.51V284H25.8332V278.636C25.8332 277.64 25.5812 276.89 25.0772 276.386C24.5852 275.87 23.8892 275.612 22.9892 275.612C22.3172 275.612 21.7292 275.75 21.2252 276.026C20.7332 276.29 20.3492 276.68 20.0732 277.196C19.8092 277.7 19.6772 278.312 19.6772 279.032V284H18.3992V274.55H19.6232V277.142L19.4252 276.656C19.7252 275.972 20.2052 275.438 20.8652 275.054C21.5252 274.658 22.3112 274.46 23.2232 274.46ZM39.1262 284.09C38.2142 284.09 37.3922 283.886 36.6602 283.478C35.9402 283.058 35.3702 282.488 34.9502 281.768C34.5302 281.036 34.3202 280.202 34.3202 279.266C34.3202 278.318 34.5302 277.484 34.9502 276.764C35.3702 276.044 35.9402 275.48 36.6602 275.072C37.3802 274.664 38.2022 274.46 39.1262 274.46C40.0622 274.46 40.8902 274.664 41.6102 275.072C42.3422 275.48 42.9122 276.044 43.3202 276.764C43.7402 277.484 43.9502 278.318 43.9502 279.266C43.9502 280.202 43.7402 281.036 43.3202 281.768C42.9122 282.488 42.3422 283.058 41.6102 283.478C40.8782 283.886 40.0502 284.09 39.1262 284.09ZM39.1262 282.956C39.8102 282.956 40.4162 282.806 40.9442 282.506C41.4722 282.194 41.8862 281.762 42.1862 281.21C42.4982 280.646 42.6542 279.998 42.6542 279.266C42.6542 278.522 42.4982 277.874 42.1862 277.322C41.8862 276.77 41.4722 276.344 40.9442 276.044C40.4162 275.732 39.8162 275.576 39.1442 275.576C38.4722 275.576 37.8722 275.732 37.3442 276.044C36.8162 276.344 36.3962 276.77 36.0842 277.322C35.7722 277.874 35.6162 278.522 35.6162 279.266C35.6162 279.998 35.7722 280.646 36.0842 281.21C36.3962 281.762 36.8162 282.194 37.3442 282.506C37.8722 282.806 38.4662 282.956 39.1262 282.956ZM46.7753 284V273.362C46.7753 272.522 47.0213 271.844 47.5133 271.328C48.0053 270.812 48.7133 270.554 49.6373 270.554C49.9973 270.554 50.3453 270.602 50.6813 270.698C51.0173 270.794 51.2993 270.944 51.5273 271.148L51.0953 272.102C50.9153 271.946 50.7053 271.832 50.4653 271.76C50.2253 271.676 49.9673 271.634 49.6913 271.634C49.1513 271.634 48.7373 271.784 48.4493 272.084C48.1613 272.384 48.0173 272.828 48.0173 273.416V274.856L48.0533 275.45V284H46.7753ZM45.0833 275.612V274.55H50.9333V275.612H45.0833ZM52.9101 284V273.362C52.9101 272.522 53.1561 271.844 53.6481 271.328C54.1401 270.812 54.8481 270.554 55.7721 270.554C56.1321 270.554 56.4801 270.602 56.8161 270.698C57.1521 270.794 57.4341 270.944 57.6621 271.148L57.2301 272.102C57.0501 271.946 56.8401 271.832 56.6001 271.76C56.3601 271.676 56.1021 271.634 55.8261 271.634C55.2861 271.634 54.8721 271.784 54.5841 272.084C54.2961 272.384 54.1521 272.828 54.1521 273.416V274.856L54.1881 275.45V284H52.9101ZM51.2181 275.612V274.55H57.0681V275.612H51.2181ZM62.6495 284.09C61.6655 284.09 60.8015 283.886 60.0575 283.478C59.3135 283.058 58.7315 282.488 58.3115 281.768C57.8915 281.036 57.6815 280.202 57.6815 279.266C57.6815 278.33 57.8795 277.502 58.2755 276.782C58.6835 276.062 59.2355 275.498 59.9315 275.09C60.6395 274.67 61.4315 274.46 62.3075 274.46C63.1955 274.46 63.9815 274.664 64.6655 275.072C65.3615 275.468 65.9075 276.032 66.3035 276.764C66.6995 277.484 66.8975 278.318 66.8975 279.266C66.8975 279.326 66.8915 279.392 66.8795 279.464C66.8795 279.524 66.8795 279.59 66.8795 279.662H58.6535V278.708H66.1955L65.6915 279.086C65.6915 278.402 65.5415 277.796 65.2415 277.268C64.9535 276.728 64.5575 276.308 64.0535 276.008C63.5495 275.708 62.9675 275.558 62.3075 275.558C61.6595 275.558 61.0775 275.708 60.5615 276.008C60.0455 276.308 59.6435 276.728 59.3555 277.268C59.0675 277.808 58.9235 278.426 58.9235 279.122V279.32C58.9235 280.04 59.0795 280.676 59.3915 281.228C59.7155 281.768 60.1595 282.194 60.7235 282.506C61.2995 282.806 61.9535 282.956 62.6855 282.956C63.2615 282.956 63.7955 282.854 64.2875 282.65C64.7915 282.446 65.2235 282.134 65.5835 281.714L66.3035 282.542C65.8835 283.046 65.3555 283.43 64.7195 283.694C64.0955 283.958 63.4055 284.09 62.6495 284.09ZM69.4988 284V274.55H70.7228V277.124L70.5968 276.674C70.8608 275.954 71.3048 275.408 71.9288 275.036C72.5528 274.652 73.3268 274.46 74.2508 274.46V275.702C74.2028 275.702 74.1548 275.702 74.1068 275.702C74.0588 275.69 74.0108 275.684 73.9628 275.684C72.9668 275.684 72.1868 275.99 71.6228 276.602C71.0588 277.202 70.7768 278.06 70.7768 279.176V284H69.4988ZM76.5828 284V274.55H77.8608V284H76.5828ZM77.2308 272.462C76.9668 272.462 76.7448 272.372 76.5648 272.192C76.3848 272.012 76.2948 271.796 76.2948 271.544C76.2948 271.292 76.3848 271.082 76.5648 270.914C76.7448 270.734 76.9668 270.644 77.2308 270.644C77.4948 270.644 77.7168 270.728 77.8968 270.896C78.0768 271.064 78.1668 271.274 78.1668 271.526C78.1668 271.79 78.0768 272.012 77.8968 272.192C77.7288 272.372 77.5068 272.462 77.2308 272.462ZM86.2408 274.46C87.0088 274.46 87.6808 274.61 88.2568 274.91C88.8448 275.198 89.3008 275.642 89.6248 276.242C89.9608 276.842 90.1288 277.598 90.1288 278.51V284H88.8508V278.636C88.8508 277.64 88.5988 276.89 88.0948 276.386C87.6028 275.87 86.9068 275.612 86.0068 275.612C85.3348 275.612 84.7468 275.75 84.2428 276.026C83.7508 276.29 83.3668 276.68 83.0908 277.196C82.8268 277.7 82.6948 278.312 82.6948 279.032V284H81.4168V274.55H82.6408V277.142L82.4428 276.656C82.7428 275.972 83.2228 275.438 83.8828 275.054C84.5428 274.658 85.3288 274.46 86.2408 274.46ZM97.6128 287.582C96.7488 287.582 95.9208 287.456 95.1288 287.204C94.3368 286.952 93.6948 286.592 93.2028 286.124L93.8508 285.152C94.2948 285.548 94.8408 285.86 95.4888 286.088C96.1488 286.328 96.8448 286.448 97.5768 286.448C98.7768 286.448 99.6588 286.166 100.223 285.602C100.787 285.05 101.069 284.186 101.069 283.01V280.652L101.249 279.032L101.123 277.412V274.55H102.347V282.848C102.347 284.48 101.945 285.674 101.141 286.43C100.349 287.198 99.1728 287.582 97.6128 287.582ZM97.3788 283.64C96.4788 283.64 95.6688 283.448 94.9488 283.064C94.2288 282.668 93.6588 282.122 93.2388 281.426C92.8308 280.73 92.6268 279.932 92.6268 279.032C92.6268 278.132 92.8308 277.34 93.2388 276.656C93.6588 275.96 94.2288 275.42 94.9488 275.036C95.6688 274.652 96.4788 274.46 97.3788 274.46C98.2188 274.46 98.9748 274.634 99.6468 274.982C100.319 275.33 100.853 275.846 101.249 276.53C101.645 277.214 101.843 278.048 101.843 279.032C101.843 280.016 101.645 280.85 101.249 281.534C100.853 282.218 100.319 282.74 99.6468 283.1C98.9748 283.46 98.2188 283.64 97.3788 283.64ZM97.5048 282.506C98.2008 282.506 98.8188 282.362 99.3588 282.074C99.8988 281.774 100.325 281.366 100.637 280.85C100.949 280.322 101.105 279.716 101.105 279.032C101.105 278.348 100.949 277.748 100.637 277.232C100.325 276.716 99.8988 276.314 99.3588 276.026C98.8188 275.726 98.2008 275.576 97.5048 275.576C96.8208 275.576 96.2028 275.726 95.6508 276.026C95.1108 276.314 94.6848 276.716 94.3728 277.232C94.0728 277.748 93.9228 278.348 93.9228 279.032C93.9228 279.716 94.0728 280.322 94.3728 280.85C94.6848 281.366 95.1108 281.774 95.6508 282.074C96.2028 282.362 96.8208 282.506 97.5048 282.506ZM115.492 284.09C114.664 284.09 113.92 283.904 113.26 283.532C112.6 283.148 112.078 282.596 111.694 281.876C111.31 281.156 111.118 280.286 111.118 279.266C111.118 278.234 111.31 277.364 111.694 276.656C112.09 275.936 112.618 275.39 113.278 275.018C113.938 274.646 114.676 274.46 115.492 274.46C116.392 274.46 117.196 274.664 117.904 275.072C118.624 275.468 119.188 276.026 119.596 276.746C120.004 277.466 120.208 278.306 120.208 279.266C120.208 280.214 120.004 281.054 119.596 281.786C119.188 282.506 118.624 283.07 117.904 283.478C117.196 283.886 116.392 284.09 115.492 284.09ZM110.614 284V270.644H111.892V277.34L111.712 279.248L111.838 281.156V284H110.614ZM115.402 282.956C116.074 282.956 116.674 282.806 117.202 282.506C117.73 282.194 118.15 281.762 118.462 281.21C118.774 280.646 118.93 279.998 118.93 279.266C118.93 278.522 118.774 277.874 118.462 277.322C118.15 276.77 117.73 276.344 117.202 276.044C116.674 275.732 116.074 275.576 115.402 275.576C114.73 275.576 114.124 275.732 113.584 276.044C113.056 276.344 112.636 276.77 112.324 277.322C112.024 277.874 111.874 278.522 111.874 279.266C111.874 279.998 112.024 280.646 112.324 281.21C112.636 281.762 113.056 282.194 113.584 282.506C114.124 282.806 114.73 282.956 115.402 282.956ZM122.622 287.582C122.178 287.582 121.752 287.51 121.344 287.366C120.948 287.222 120.606 287.006 120.318 286.718L120.912 285.764C121.152 285.992 121.41 286.166 121.686 286.286C121.974 286.418 122.292 286.484 122.64 286.484C123.06 286.484 123.42 286.364 123.72 286.124C124.032 285.896 124.326 285.488 124.602 284.9L125.214 283.514L125.358 283.316L129.246 274.55H130.506L125.772 285.134C125.508 285.746 125.214 286.232 124.89 286.592C124.578 286.952 124.236 287.204 123.864 287.348C123.492 287.504 123.078 287.582 122.622 287.582ZM125.142 284.27L120.786 274.55H122.118L125.97 283.226L125.142 284.27ZM137.286 284V271.4H142.722C144.126 271.4 145.212 271.682 145.98 272.246C146.76 272.81 147.15 273.608 147.15 274.64C147.15 275.324 146.988 275.9 146.664 276.368C146.352 276.836 145.92 277.19 145.368 277.43C144.828 277.67 144.234 277.79 143.586 277.79L143.892 277.358C144.696 277.358 145.386 277.484 145.962 277.736C146.55 277.976 147.006 278.342 147.33 278.834C147.654 279.314 147.816 279.914 147.816 280.634C147.816 281.702 147.42 282.53 146.628 283.118C145.848 283.706 144.666 284 143.082 284H137.286ZM138.618 282.902H143.064C144.168 282.902 145.014 282.716 145.602 282.344C146.19 281.96 146.484 281.354 146.484 280.526C146.484 279.71 146.19 279.116 145.602 278.744C145.014 278.36 144.168 278.168 143.064 278.168H138.474V277.07H142.632C143.64 277.07 144.42 276.878 144.972 276.494C145.536 276.11 145.818 275.54 145.818 274.784C145.818 274.016 145.536 273.446 144.972 273.074C144.42 272.69 143.64 272.498 142.632 272.498H138.618V282.902ZM150.587 284V274.55H151.865V284H150.587ZM151.235 272.462C150.971 272.462 150.749 272.372 150.569 272.192C150.389 272.012 150.299 271.796 150.299 271.544C150.299 271.292 150.389 271.082 150.569 270.914C150.749 270.734 150.971 270.644 151.235 270.644C151.499 270.644 151.721 270.728 151.901 270.896C152.081 271.064 152.171 271.274 152.171 271.526C152.171 271.79 152.081 272.012 151.901 272.192C151.733 272.372 151.511 272.462 151.235 272.462ZM159.273 284.09C158.361 284.09 157.539 283.886 156.807 283.478C156.087 283.058 155.517 282.488 155.097 281.768C154.677 281.036 154.467 280.202 154.467 279.266C154.467 278.318 154.677 277.484 155.097 276.764C155.517 276.044 156.087 275.48 156.807 275.072C157.527 274.664 158.349 274.46 159.273 274.46C160.209 274.46 161.037 274.664 161.757 275.072C162.489 275.48 163.059 276.044 163.467 276.764C163.887 277.484 164.097 278.318 164.097 279.266C164.097 280.202 163.887 281.036 163.467 281.768C163.059 282.488 162.489 283.058 161.757 283.478C161.025 283.886 160.197 284.09 159.273 284.09ZM159.273 282.956C159.957 282.956 160.563 282.806 161.091 282.506C161.619 282.194 162.033 281.762 162.333 281.21C162.645 280.646 162.801 279.998 162.801 279.266C162.801 278.522 162.645 277.874 162.333 277.322C162.033 276.77 161.619 276.344 161.091 276.044C160.563 275.732 159.963 275.576 159.291 275.576C158.619 275.576 158.019 275.732 157.491 276.044C156.963 276.344 156.543 276.77 156.231 277.322C155.919 277.874 155.763 278.522 155.763 279.266C155.763 279.998 155.919 280.646 156.231 281.21C156.543 281.762 156.963 282.194 157.491 282.506C158.019 282.806 158.613 282.956 159.273 282.956ZM169.244 284.09C168.464 284.09 167.726 283.982 167.03 283.766C166.334 283.538 165.788 283.256 165.392 282.92L165.968 281.912C166.352 282.2 166.844 282.452 167.444 282.668C168.044 282.872 168.674 282.974 169.334 282.974C170.234 282.974 170.882 282.836 171.278 282.56C171.674 282.272 171.872 281.894 171.872 281.426C171.872 281.078 171.758 280.808 171.53 280.616C171.314 280.412 171.026 280.262 170.666 280.166C170.306 280.058 169.904 279.968 169.46 279.896C169.016 279.824 168.572 279.74 168.128 279.644C167.696 279.548 167.3 279.41 166.94 279.23C166.58 279.038 166.286 278.78 166.058 278.456C165.842 278.132 165.734 277.7 165.734 277.16C165.734 276.644 165.878 276.182 166.166 275.774C166.454 275.366 166.874 275.048 167.426 274.82C167.99 274.58 168.674 274.46 169.478 274.46C170.09 274.46 170.702 274.544 171.314 274.712C171.926 274.868 172.43 275.078 172.826 275.342L172.268 276.368C171.848 276.08 171.398 275.876 170.918 275.756C170.438 275.624 169.958 275.558 169.478 275.558C168.626 275.558 167.996 275.708 167.588 276.008C167.192 276.296 166.994 276.668 166.994 277.124C166.994 277.484 167.102 277.766 167.318 277.97C167.546 278.174 167.84 278.336 168.2 278.456C168.572 278.564 168.974 278.654 169.406 278.726C169.85 278.798 170.288 278.888 170.72 278.996C171.164 279.092 171.566 279.23 171.926 279.41C172.298 279.578 172.592 279.824 172.808 280.148C173.036 280.46 173.15 280.874 173.15 281.39C173.15 281.942 172.994 282.422 172.682 282.83C172.382 283.226 171.938 283.538 171.35 283.766C170.774 283.982 170.072 284.09 169.244 284.09ZM179.509 284.09C178.525 284.09 177.661 283.886 176.917 283.478C176.173 283.058 175.591 282.488 175.171 281.768C174.751 281.036 174.541 280.202 174.541 279.266C174.541 278.33 174.739 277.502 175.135 276.782C175.543 276.062 176.095 275.498 176.791 275.09C177.499 274.67 178.291 274.46 179.167 274.46C180.055 274.46 180.841 274.664 181.525 275.072C182.221 275.468 182.767 276.032 183.163 276.764C183.559 277.484 183.757 278.318 183.757 279.266C183.757 279.326 183.751 279.392 183.739 279.464C183.739 279.524 183.739 279.59 183.739 279.662H175.513V278.708H183.055L182.551 279.086C182.551 278.402 182.401 277.796 182.101 277.268C181.813 276.728 181.417 276.308 180.913 276.008C180.409 275.708 179.827 275.558 179.167 275.558C178.519 275.558 177.937 275.708 177.421 276.008C176.905 276.308 176.503 276.728 176.215 277.268C175.927 277.808 175.783 278.426 175.783 279.122V279.32C175.783 280.04 175.939 280.676 176.251 281.228C176.575 281.768 177.019 282.194 177.583 282.506C178.159 282.806 178.813 282.956 179.545 282.956C180.121 282.956 180.655 282.854 181.147 282.65C181.651 282.446 182.083 282.134 182.443 281.714L183.163 282.542C182.743 283.046 182.215 283.43 181.579 283.694C180.955 283.958 180.265 284.09 179.509 284.09ZM186.358 284V274.55H187.582V277.124L187.456 276.674C187.72 275.954 188.164 275.408 188.788 275.036C189.412 274.652 190.186 274.46 191.11 274.46V275.702C191.062 275.702 191.014 275.702 190.966 275.702C190.918 275.69 190.87 275.684 190.822 275.684C189.826 275.684 189.046 275.99 188.482 276.602C187.918 277.202 187.636 278.06 187.636 279.176V284H186.358ZM198.661 284V281.912L198.607 281.57V278.078C198.607 277.274 198.379 276.656 197.923 276.224C197.479 275.792 196.813 275.576 195.925 275.576C195.313 275.576 194.731 275.678 194.179 275.882C193.627 276.086 193.159 276.356 192.775 276.692L192.199 275.738C192.679 275.33 193.255 275.018 193.927 274.802C194.599 274.574 195.307 274.46 196.051 274.46C197.275 274.46 198.217 274.766 198.877 275.378C199.549 275.978 199.885 276.896 199.885 278.132V284H198.661ZM195.403 284.09C194.695 284.09 194.077 283.976 193.549 283.748C193.033 283.508 192.637 283.184 192.361 282.776C192.085 282.356 191.947 281.876 191.947 281.336C191.947 280.844 192.061 280.4 192.289 280.004C192.529 279.596 192.913 279.272 193.441 279.032C193.981 278.78 194.701 278.654 195.601 278.654H198.859V279.608H195.637C194.725 279.608 194.089 279.77 193.729 280.094C193.381 280.418 193.207 280.82 193.207 281.3C193.207 281.84 193.417 282.272 193.837 282.596C194.257 282.92 194.845 283.082 195.601 283.082C196.321 283.082 196.939 282.92 197.455 282.596C197.983 282.26 198.367 281.78 198.607 281.156L198.895 282.038C198.655 282.662 198.235 283.16 197.635 283.532C197.047 283.904 196.303 284.09 195.403 284.09ZM207.28 284.09C206.344 284.09 205.504 283.886 204.76 283.478C204.028 283.058 203.452 282.488 203.032 281.768C202.612 281.036 202.402 280.202 202.402 279.266C202.402 278.318 202.612 277.484 203.032 276.764C203.452 276.044 204.028 275.48 204.76 275.072C205.504 274.664 206.344 274.46 207.28 274.46C208.084 274.46 208.81 274.616 209.458 274.928C210.106 275.24 210.616 275.708 210.988 276.332L210.034 276.98C209.71 276.5 209.308 276.146 208.828 275.918C208.348 275.69 207.826 275.576 207.262 275.576C206.59 275.576 205.984 275.732 205.444 276.044C204.904 276.344 204.478 276.77 204.166 277.322C203.854 277.874 203.698 278.522 203.698 279.266C203.698 280.01 203.854 280.658 204.166 281.21C204.478 281.762 204.904 282.194 205.444 282.506C205.984 282.806 206.59 282.956 207.262 282.956C207.826 282.956 208.348 282.842 208.828 282.614C209.308 282.386 209.71 282.038 210.034 281.57L210.988 282.218C210.616 282.83 210.106 283.298 209.458 283.622C208.81 283.934 208.084 284.09 207.28 284.09ZM218.182 274.46C218.95 274.46 219.622 274.61 220.198 274.91C220.786 275.198 221.242 275.642 221.566 276.242C221.902 276.842 222.07 277.598 222.07 278.51V284H220.792V278.636C220.792 277.64 220.54 276.89 220.036 276.386C219.544 275.87 218.848 275.612 217.948 275.612C217.276 275.612 216.688 275.75 216.184 276.026C215.692 276.29 215.308 276.68 215.032 277.196C214.768 277.7 214.636 278.312 214.636 279.032V284H213.358V270.644H214.636V277.142L214.384 276.656C214.684 275.972 215.164 275.438 215.824 275.054C216.484 274.658 217.27 274.46 218.182 274.46ZM230.503 284V271.4H231.835V284H230.503ZM240.489 274.46C241.257 274.46 241.929 274.61 242.505 274.91C243.093 275.198 243.549 275.642 243.873 276.242C244.209 276.842 244.377 277.598 244.377 278.51V284H243.099V278.636C243.099 277.64 242.847 276.89 242.343 276.386C241.851 275.87 241.155 275.612 240.255 275.612C239.583 275.612 238.995 275.75 238.491 276.026C237.999 276.29 237.615 276.68 237.339 277.196C237.075 277.7 236.943 278.312 236.943 279.032V284H235.665V274.55H236.889V277.142L236.691 276.656C236.991 275.972 237.471 275.438 238.131 275.054C238.791 274.658 239.577 274.46 240.489 274.46ZM252.653 274.46C253.421 274.46 254.093 274.61 254.669 274.91C255.257 275.198 255.713 275.642 256.037 276.242C256.373 276.842 256.541 277.598 256.541 278.51V284H255.263V278.636C255.263 277.64 255.011 276.89 254.507 276.386C254.015 275.87 253.319 275.612 252.419 275.612C251.747 275.612 251.159 275.75 250.655 276.026C250.163 276.29 249.779 276.68 249.503 277.196C249.239 277.7 249.107 278.312 249.107 279.032V284H247.829V274.55H249.053V277.142L248.855 276.656C249.155 275.972 249.635 275.438 250.295 275.054C250.955 274.658 251.741 274.46 252.653 274.46ZM263.845 284.09C262.933 284.09 262.111 283.886 261.379 283.478C260.659 283.058 260.089 282.488 259.669 281.768C259.249 281.036 259.039 280.202 259.039 279.266C259.039 278.318 259.249 277.484 259.669 276.764C260.089 276.044 260.659 275.48 261.379 275.072C262.099 274.664 262.921 274.46 263.845 274.46C264.781 274.46 265.609 274.664 266.329 275.072C267.061 275.48 267.631 276.044 268.039 276.764C268.459 277.484 268.669 278.318 268.669 279.266C268.669 280.202 268.459 281.036 268.039 281.768C267.631 282.488 267.061 283.058 266.329 283.478C265.597 283.886 264.769 284.09 263.845 284.09ZM263.845 282.956C264.529 282.956 265.135 282.806 265.663 282.506C266.191 282.194 266.605 281.762 266.905 281.21C267.217 280.646 267.373 279.998 267.373 279.266C267.373 278.522 267.217 277.874 266.905 277.322C266.605 276.77 266.191 276.344 265.663 276.044C265.135 275.732 264.535 275.576 263.863 275.576C263.191 275.576 262.591 275.732 262.063 276.044C261.535 276.344 261.115 276.77 260.803 277.322C260.491 277.874 260.335 278.522 260.335 279.266C260.335 279.998 260.491 280.646 260.803 281.21C261.115 281.762 261.535 282.194 262.063 282.506C262.591 282.806 263.185 282.956 263.845 282.956ZM273.444 284L269.25 274.55H270.582L274.434 283.316H273.804L277.71 274.55H278.97L274.758 284H273.444ZM286.411 284V281.912L286.357 281.57V278.078C286.357 277.274 286.129 276.656 285.673 276.224C285.229 275.792 284.563 275.576 283.675 275.576C283.063 275.576 282.481 275.678 281.929 275.882C281.377 276.086 280.909 276.356 280.525 276.692L279.949 275.738C280.429 275.33 281.005 275.018 281.677 274.802C282.349 274.574 283.057 274.46 283.801 274.46C285.025 274.46 285.967 274.766 286.627 275.378C287.299 275.978 287.635 276.896 287.635 278.132V284H286.411ZM283.153 284.09C282.445 284.09 281.827 283.976 281.299 283.748C280.783 283.508 280.387 283.184 280.111 282.776C279.835 282.356 279.697 281.876 279.697 281.336C279.697 280.844 279.811 280.4 280.039 280.004C280.279 279.596 280.663 279.272 281.191 279.032C281.731 278.78 282.451 278.654 283.351 278.654H286.609V279.608H283.387C282.475 279.608 281.839 279.77 281.479 280.094C281.131 280.418 280.957 280.82 280.957 281.3C280.957 281.84 281.167 282.272 281.587 282.596C282.007 282.92 282.595 283.082 283.351 283.082C284.071 283.082 284.689 282.92 285.205 282.596C285.733 282.26 286.117 281.78 286.357 281.156L286.645 282.038C286.405 282.662 285.985 283.16 285.385 283.532C284.797 283.904 284.053 284.09 283.153 284.09ZM294.094 284.09C293.206 284.09 292.522 283.85 292.042 283.37C291.562 282.89 291.322 282.212 291.322 281.336V272.462H292.6V281.264C292.6 281.816 292.738 282.242 293.014 282.542C293.302 282.842 293.71 282.992 294.238 282.992C294.802 282.992 295.27 282.83 295.642 282.506L296.092 283.424C295.84 283.652 295.534 283.82 295.174 283.928C294.826 284.036 294.466 284.09 294.094 284.09ZM289.63 275.612V274.55H295.48V275.612H289.63ZM298.419 284V274.55H299.697V284H298.419ZM299.067 272.462C298.803 272.462 298.581 272.372 298.401 272.192C298.221 272.012 298.131 271.796 298.131 271.544C298.131 271.292 298.221 271.082 298.401 270.914C298.581 270.734 298.803 270.644 299.067 270.644C299.331 270.644 299.553 270.728 299.733 270.896C299.913 271.064 300.003 271.274 300.003 271.526C300.003 271.79 299.913 272.012 299.733 272.192C299.565 272.372 299.343 272.462 299.067 272.462ZM307.105 284.09C306.193 284.09 305.371 283.886 304.639 283.478C303.919 283.058 303.349 282.488 302.929 281.768C302.509 281.036 302.299 280.202 302.299 279.266C302.299 278.318 302.509 277.484 302.929 276.764C303.349 276.044 303.919 275.48 304.639 275.072C305.359 274.664 306.181 274.46 307.105 274.46C308.041 274.46 308.869 274.664 309.589 275.072C310.321 275.48 310.891 276.044 311.299 276.764C311.719 277.484 311.929 278.318 311.929 279.266C311.929 280.202 311.719 281.036 311.299 281.768C310.891 282.488 310.321 283.058 309.589 283.478C308.857 283.886 308.029 284.09 307.105 284.09ZM307.105 282.956C307.789 282.956 308.395 282.806 308.923 282.506C309.451 282.194 309.865 281.762 310.165 281.21C310.477 280.646 310.633 279.998 310.633 279.266C310.633 278.522 310.477 277.874 310.165 277.322C309.865 276.77 309.451 276.344 308.923 276.044C308.395 275.732 307.795 275.576 307.123 275.576C306.451 275.576 305.851 275.732 305.323 276.044C304.795 276.344 304.375 276.77 304.063 277.322C303.751 277.874 303.595 278.522 303.595 279.266C303.595 279.998 303.751 280.646 304.063 281.21C304.375 281.762 304.795 282.194 305.323 282.506C305.851 282.806 306.445 282.956 307.105 282.956ZM319.362 274.46C320.13 274.46 320.802 274.61 321.378 274.91C321.966 275.198 322.422 275.642 322.746 276.242C323.082 276.842 323.25 277.598 323.25 278.51V284H321.972V278.636C321.972 277.64 321.72 276.89 321.216 276.386C320.724 275.87 320.028 275.612 319.128 275.612C318.456 275.612 317.868 275.75 317.364 276.026C316.872 276.29 316.488 276.68 316.212 277.196C315.948 277.7 315.816 278.312 315.816 279.032V284H314.538V274.55H315.762V277.142L315.564 276.656C315.864 275.972 316.344 275.438 317.004 275.054C317.664 274.658 318.45 274.46 319.362 274.46ZM337.209 284.108C336.249 284.108 335.361 283.952 334.545 283.64C333.741 283.316 333.039 282.866 332.439 282.29C331.851 281.714 331.389 281.036 331.053 280.256C330.729 279.476 330.567 278.624 330.567 277.7C330.567 276.776 330.729 275.924 331.053 275.144C331.389 274.364 331.857 273.686 332.457 273.11C333.057 272.534 333.759 272.09 334.563 271.778C335.379 271.454 336.267 271.292 337.227 271.292C338.187 271.292 339.063 271.442 339.855 271.742C340.659 272.042 341.343 272.498 341.907 273.11L341.079 273.956C340.551 273.428 339.969 273.05 339.333 272.822C338.697 272.594 338.013 272.48 337.281 272.48C336.501 272.48 335.781 272.612 335.121 272.876C334.473 273.128 333.903 273.494 333.411 273.974C332.931 274.442 332.553 274.994 332.277 275.63C332.013 276.254 331.881 276.944 331.881 277.7C331.881 278.444 332.013 279.134 332.277 279.77C332.553 280.406 332.931 280.964 333.411 281.444C333.903 281.912 334.473 282.278 335.121 282.542C335.781 282.794 336.495 282.92 337.263 282.92C337.983 282.92 338.661 282.812 339.297 282.596C339.945 282.38 340.539 282.014 341.079 281.498L341.835 282.506C341.235 283.034 340.533 283.436 339.729 283.712C338.925 283.976 338.085 284.108 337.209 284.108ZM340.557 282.344V277.7H341.835V282.506L340.557 282.344ZM345.335 284V274.55H346.559V277.124L346.433 276.674C346.697 275.954 347.141 275.408 347.765 275.036C348.389 274.652 349.163 274.46 350.087 274.46V275.702C350.039 275.702 349.991 275.702 349.943 275.702C349.895 275.69 349.847 275.684 349.799 275.684C348.803 275.684 348.023 275.99 347.459 276.602C346.895 277.202 346.613 278.06 346.613 279.176V284H345.335ZM356.183 284.09C355.271 284.09 354.449 283.886 353.717 283.478C352.997 283.058 352.427 282.488 352.007 281.768C351.587 281.036 351.377 280.202 351.377 279.266C351.377 278.318 351.587 277.484 352.007 276.764C352.427 276.044 352.997 275.48 353.717 275.072C354.437 274.664 355.259 274.46 356.183 274.46C357.119 274.46 357.947 274.664 358.667 275.072C359.399 275.48 359.969 276.044 360.377 276.764C360.797 277.484 361.007 278.318 361.007 279.266C361.007 280.202 360.797 281.036 360.377 281.768C359.969 282.488 359.399 283.058 358.667 283.478C357.935 283.886 357.107 284.09 356.183 284.09ZM356.183 282.956C356.867 282.956 357.473 282.806 358.001 282.506C358.529 282.194 358.943 281.762 359.243 281.21C359.555 280.646 359.711 279.998 359.711 279.266C359.711 278.522 359.555 277.874 359.243 277.322C358.943 276.77 358.529 276.344 358.001 276.044C357.473 275.732 356.873 275.576 356.201 275.576C355.529 275.576 354.929 275.732 354.401 276.044C353.873 276.344 353.453 276.77 353.141 277.322C352.829 277.874 352.673 278.522 352.673 279.266C352.673 279.998 352.829 280.646 353.141 281.21C353.453 281.762 353.873 282.194 354.401 282.506C354.929 282.806 355.523 282.956 356.183 282.956ZM367.522 284.09C366.718 284.09 366.016 283.94 365.416 283.64C364.816 283.34 364.348 282.89 364.012 282.29C363.688 281.69 363.526 280.94 363.526 280.04V274.55H364.804V279.896C364.804 280.904 365.05 281.666 365.542 282.182C366.046 282.686 366.748 282.938 367.648 282.938C368.308 282.938 368.878 282.806 369.358 282.542C369.85 282.266 370.222 281.87 370.474 281.354C370.738 280.838 370.87 280.22 370.87 279.5V274.55H372.148V284H370.924V281.408L371.122 281.876C370.822 282.572 370.354 283.118 369.718 283.514C369.094 283.898 368.362 284.09 367.522 284.09ZM380.588 284.09C379.772 284.09 379.034 283.904 378.374 283.532C377.714 283.148 377.186 282.602 376.79 281.894C376.406 281.174 376.214 280.298 376.214 279.266C376.214 278.234 376.406 277.364 376.79 276.656C377.174 275.936 377.696 275.39 378.356 275.018C379.016 274.646 379.76 274.46 380.588 274.46C381.488 274.46 382.292 274.664 383 275.072C383.72 275.468 384.284 276.032 384.692 276.764C385.1 277.484 385.304 278.318 385.304 279.266C385.304 280.226 385.1 281.066 384.692 281.786C384.284 282.506 383.72 283.07 383 283.478C382.292 283.886 381.488 284.09 380.588 284.09ZM375.71 287.492V274.55H376.934V277.394L376.808 279.284L376.988 281.192V287.492H375.71ZM380.498 282.956C381.17 282.956 381.77 282.806 382.298 282.506C382.826 282.194 383.246 281.762 383.558 281.21C383.87 280.646 384.026 279.998 384.026 279.266C384.026 278.534 383.87 277.892 383.558 277.34C383.246 276.788 382.826 276.356 382.298 276.044C381.77 275.732 381.17 275.576 380.498 275.576C379.826 275.576 379.22 275.732 378.68 276.044C378.152 276.356 377.732 276.788 377.42 277.34C377.12 277.892 376.97 278.534 376.97 279.266C376.97 279.998 377.12 280.646 377.42 281.21C377.732 281.762 378.152 282.194 378.68 282.506C379.22 282.806 379.826 282.956 380.498 282.956Z" fill="#838383"/>
<defs>
<filter id="filter0_d_0_339" x="104.61" y="73.931" width="178.872" height="194.777" filterUnits="userSpaceOnUse" color-interpolation-filters="sRGB">
<feFlood flood-opacity="0" result="BackgroundImageFix"/>
<feColorMatrix in="SourceAlpha" type="matrix" values="0 0 0 0 0 0 0 0 0 0 0 0 0 0 0 0 0 0 127 0" result="hardAlpha"/>
<feMorphology radius="15.9055" operator="erode" in="SourceAlpha" result="effect1_dropShadow_0_339"/>
<feOffset dy="19.2952"/>
<feGaussianBlur stdDeviation="9.64761"/>
<feComposite in2="hardAlpha" operator="out"/>
<feColorMatrix type="matrix" values="0 0 0 0 1 0 0 0 0 1 0 0 0 0 1 0 0 0 0.25 0"/>
<feBlend mode="normal" in2="BackgroundImageFix" result="effect1_dropShadow_0_339"/>
<feBlend mode="normal" in="SourceGraphic" in2="effect1_dropShadow_0_339" result="shape"/>
</filter>
<linearGradient id="paint0_linear_0_339" x1="108" y1="73.931" x2="280.353" y2="250.492" gradientUnits="userSpaceOnUse">
<stop offset="0.1875" stop-color="#339AFF"/>
<stop offset="1" stop-color="#0F62B4"/>
</linearGradient>
<linearGradient id="paint1_linear_0_339" x1="155.386" y1="128.877" x2="197.739" y2="192.503" gradientUnits="userSpaceOnUse">
<stop stop-color="white"/>
<stop offset="1" stop-color="#D5D5D5"/>
</linearGradient>
<linearGradient id="paint2_linear_0_339" x1="230.364" y1="129.475" x2="206.127" y2="192.761" gradientUnits="userSpaceOnUse">
<stop stop-color="#5AEF71"/>
<stop offset="1" stop-color="#3EC253"/>
</linearGradient>
<clipPath id="clip0_0_339">
<rect x="108" y="73.931" width="172.092" height="172.092" rx="19.2952" fill="white"/>
</clipPath>
</defs>
</svg>
